# xmcd
#
# Track frame offsets: 
#        151
#        20897
#        47389
#        67207
#        86113
#        107117
#        129099
#        157271
#        180703
#        194757
#        211554
#        231619
#
# Disc length: 3331 seconds
#
# Revision: 3
# Processed by: cddbd v1.5.2PL0 Copyright (c) Steve Scherf et al.
# Submitted via: ExactAudioCopyFreeDBPlugin 1.0
#
DISCID=b10d010c
DTITLE=Takako Afuso - 魂
DYEAR=2006
DGENRE=Jazz
TTITLE0=Work Song
TTITLE1=I'm A Fool To Want You
TTITLE2=Here Comes The Sun
TTITLE3=Everything Must Change
TTITLE4=My Favorite Things
TTITLE5=Just Like A Woman
TTITLE6=Smooth Operator
TTITLE7=I Loves You Porgy
TTITLE8=My Baby Just Cares For Me
TTITLE9=Hero (A.K.A. The Wind Beneath My Wings)
TTITLE10=Moanin'
TTITLE11=Tennessee Waltz
EXTD=YEAR: 2006
EXTT0=
EXTT1=
EXTT2=
EXTT3=
EXTT4=
EXTT5=
EXTT6=
EXTT7=
EXTT8=
EXTT9=
EXTT10=
EXTT11=
PLAYORDER=
